<svg width="64" height="64" viewBox="0 0 64 64" fill="none" xmlns="http://www.w3.org/2000/svg">
  <defs>
    <linearGradient id="shMark" x1="4" y1="4" x2="60" y2="60" gradientUnits="userSpaceOnUse">
      <stop stop-color="#FF7A45"></stop>
      <stop offset="1" stop-color="#FFAB42"></stop>
    </linearGradient>
  </defs>
  <rect x="2" y="2" width="60" height="60" rx="18" fill="url(#shMark)"></rect>
  <rect x="2.75" y="2.75" width="58.5" height="58.5" rx="17.25" fill="none" stroke="#ffffff" stroke-opacity="0.6" stroke-width="1.5"></rect>
  <path d="M41 24c-1.7-2.8-4.7-4.3-8.6-4.3-5.4 0-9 2.9-9 7.1 0 3.7 2.5 5.6 7.5 6.7 3.9.9 5 1.7 5 3.4 0 1.9-1.7 3-4.4 3-2.9 0-4.8-1.3-6-3.7l-4.7 2.7c1.8 3.6 5.4 5.6 10.6 5.6 5.8 0 9.8-3 9.8-7.6 0-3.9-2.5-5.8-7.9-7-3.6-.8-4.7-1.5-4.7-3.1 0-1.6 1.5-2.6 3.8-2.6 2.4 0 4 1.1 4.9 3l4.2-2.8Z" fill="#fff"></path>
</svg>