<svg width="240" height="64" viewBox="0 0 240 64" fill="none" xmlns="http://www.w3.org/2000/svg">
  <defs>
    <linearGradient id="shSunset" x1="0" y1="0" x2="56" y2="56" gradientUnits="userSpaceOnUse">
      <stop stop-color="#FF7A45"></stop>
      <stop offset="1" stop-color="#FFAB42"></stop>
    </linearGradient>
  </defs>
  <rect x="2" y="4" width="56" height="56" rx="16" fill="url(#shSunset)"></rect>
  <rect x="2.5" y="4.5" width="55" height="55" rx="15.5" fill="none" stroke="#ffffff" stroke-opacity="0.55"></rect>
  <path d="M38.5 22.5c-1.6-2.6-4.4-4-8-4-5 0-8.4 2.7-8.4 6.6 0 3.4 2.3 5.2 7 6.2 3.6.8 4.7 1.6 4.7 3.2 0 1.7-1.6 2.8-4.1 2.8-2.7 0-4.5-1.2-5.6-3.4l-4.4 2.5c1.7 3.3 5 5.2 9.9 5.2 5.4 0 9.1-2.8 9.1-7.1 0-3.6-2.3-5.4-7.4-6.5-3.3-.7-4.3-1.4-4.3-2.9 0-1.5 1.4-2.4 3.5-2.4 2.2 0 3.7 1 4.6 2.8l4-2.6Z" fill="#fff"></path>
  <text x="74" y="33" font-family="Sora, sans-serif" font-size="23" font-weight="800" letter-spacing="-0.5" fill="#2A2620">Sri Harsha</text>
  <text x="75" y="50" font-family="Plus Jakarta Sans, sans-serif" font-size="12" font-weight="600" letter-spacing="2.4" fill="#ff5c1c">PORTFOLIO</text>
</svg>